<svg xmlns="http://www.w3.org/2000/svg" xmlns:xlink="http://www.w3.org/1999/xlink" width="800" height="600" class="main-svg" viewBox="0 0 800 600"><rect width="800" height="600" x="0" y="0" style="fill:#fff;fill-opacity:1"/><defs id="defs-6e05cc"><g class="clips"><clipPath id="clip6e05ccxyplot" class="plotclip"><rect width="601" height="420"/></clipPath><clipPath id="clip6e05ccx" class="axesclip"><rect width="601" height="600" x="80" y="0"/></clipPath><clipPath id="clip6e05ccy" class="axesclip"><rect width="800" height="420" x="0" y="100"/></clipPath><clipPath id="clip6e05ccxy" class="axesclip"><rect width="601" height="420" x="80" y="100"/></clipPath></g></defs><g class="cartesianlayer"><g class="subplot xy"><g class="gridlayer"><g class="x"><path d="M0,100v420" class="xgrid crisp" transform="translate(113.8,0)" style="stroke:#eee;stroke-opacity:1;stroke-width:1px"/><path d="M0,100v420" class="xgrid crisp" transform="translate(194.69,0)" style="stroke:#eee;stroke-opacity:1;stroke-width:1px"/><path d="M0,100v420" class="xgrid crisp" transform="translate(275.57,0)" style="stroke:#eee;stroke-opacity:1;stroke-width:1px"/><path d="M0,100v420" class="xgrid crisp" transform="translate(356.46,0)" style="stroke:#eee;stroke-opacity:1;stroke-width:1px"/><path d="M0,100v420" class="xgrid crisp" transform="translate(437.34,0)" style="stroke:#eee;stroke-opacity:1;stroke-width:1px"/><path d="M0,100v420" class="xgrid crisp" transform="translate(599.11,0)" style="stroke:#eee;stroke-opacity:1;stroke-width:1px"/></g><g class="y"><path d="M80,0h601" class="ygrid crisp" transform="translate(0,489.16)" style="stroke:#eee;stroke-opacity:1;stroke-width:1px"/><path d="M80,0h601" class="ygrid crisp" transform="translate(0,418.84)" style="stroke:#eee;stroke-opacity:1;stroke-width:1px"/><path d="M80,0h601" class="ygrid crisp" transform="translate(0,348.52)" style="stroke:#eee;stroke-opacity:1;stroke-width:1px"/><path d="M80,0h601" class="ygrid crisp" transform="translate(0,278.2)" style="stroke:#eee;stroke-opacity:1;stroke-width:1px"/><path d="M80,0h601" class="ygrid crisp" transform="translate(0,137.57)" style="stroke:#eee;stroke-opacity:1;stroke-width:1px"/></g></g><g class="zerolinelayer"><path d="M0,100v420" class="xzl zl crisp" transform="translate(518.23,0)" style="stroke:#444;stroke-opacity:1;stroke-width:1px"/><path d="M80,0h601" class="yzl zl crisp" transform="translate(0,207.88)" style="stroke:#444;stroke-opacity:1;stroke-width:1px"/></g><path class="xlines-below"/><path class="ylines-below"/><g class="plot" clip-path="url('#clip6e05ccxyplot')" transform="translate(80, 100)"><g class="scatterlayer mlayer"><g class="trace scatter trace6def53" style="stroke-miterlimit:2;opacity:1"><g class="errorbars"><g class="errorbar"><path d="M393.79,134.6h8m-4,0V165.54m-4,0h8" class="yerror" style="vector-effect:non-scaling-stroke;stroke-width:2px;stroke:#1f77b4;stroke-opacity:1"/></g><g class="errorbar"><path d="M353.34,144.45h8m-4,0V192.27m-4,0h8" class="yerror" style="vector-effect:non-scaling-stroke;stroke-width:2px;stroke:#1f77b4;stroke-opacity:1"/></g><g class="errorbar"><path d="M312.9,154.29h8m-4,0V207.73m-4,0h8" class="yerror" style="vector-effect:non-scaling-stroke;stroke-width:2px;stroke:#1f77b4;stroke-opacity:1"/></g><g class="errorbar"><path d="M272.46,195.08h8m-4,0V248.52m-4,0h8" class="yerror" style="vector-effect:non-scaling-stroke;stroke-width:2px;stroke:#1f77b4;stroke-opacity:1"/></g><g class="errorbar"><path d="M232.01,244.3h8m-4,0V292.12m-4,0h8" class="yerror" style="vector-effect:non-scaling-stroke;stroke-width:2px;stroke:#1f77b4;stroke-opacity:1"/></g><g class="errorbar"><path d="M191.57,265.4h8m-4,0V307.59m-4,0h8" class="yerror" style="vector-effect:non-scaling-stroke;stroke-width:2px;stroke:#1f77b4;stroke-opacity:1"/></g><g class="errorbar"><path d="M151.13,285.08h8m-4,0V338.53m-4,0h8" class="yerror" style="vector-effect:non-scaling-stroke;stroke-width:2px;stroke:#1f77b4;stroke-opacity:1"/></g><g class="errorbar"><path d="M110.69,327.28h8m-4,0V375.09m-4,0h8" class="yerror" style="vector-effect:non-scaling-stroke;stroke-width:2px;stroke:#1f77b4;stroke-opacity:1"/></g><g class="errorbar"><path d="M70.24,327.28h8m-4,0V375.09m-4,0h8" class="yerror" style="vector-effect:non-scaling-stroke;stroke-width:2px;stroke:#1f77b4;stroke-opacity:1"/></g><g class="errorbar"><path d="M29.799999999999997,354h8m-4,0V399m-4,0h8" class="yerror" style="vector-effect:non-scaling-stroke;stroke-width:2px;stroke:#1f77b4;stroke-opacity:1"/></g></g><g class="lines"><path d="M397.79,150.07L357.34,168.36L316.9,181.01L276.46,221.8L236.01,268.21L195.57,286.49L155.13,311.81L114.69,351.18L74.24,351.18L33.8,376.5" class="js-line" style="vector-effect:non-scaling-stroke;fill:none;stroke:#1f77b4;stroke-opacity:1;stroke-width:2px;opacity:1"/></g><g class="points"><path d="M3,0A3,3 0 1,1 0,-3A3,3 0 0,1 3,0Z" class="point" transform="translate(397.79,150.07)" style="opacity:1;stroke-width:0;fill:#1f77b4;fill-opacity:1"/><path d="M3,0A3,3 0 1,1 0,-3A3,3 0 0,1 3,0Z" class="point" transform="translate(357.34,168.36)" style="opacity:1;stroke-width:0;fill:#1f77b4;fill-opacity:1"/><path d="M3,0A3,3 0 1,1 0,-3A3,3 0 0,1 3,0Z" class="point" transform="translate(316.9,181.01)" style="opacity:1;stroke-width:0;fill:#1f77b4;fill-opacity:1"/><path d="M3,0A3,3 0 1,1 0,-3A3,3 0 0,1 3,0Z" class="point" transform="translate(276.46,221.8)" style="opacity:1;stroke-width:0;fill:#1f77b4;fill-opacity:1"/><path d="M3,0A3,3 0 1,1 0,-3A3,3 0 0,1 3,0Z" class="point" transform="translate(236.01,268.21)" style="opacity:1;stroke-width:0;fill:#1f77b4;fill-opacity:1"/><path d="M3,0A3,3 0 1,1 0,-3A3,3 0 0,1 3,0Z" class="point" transform="translate(195.57,286.49)" style="opacity:1;stroke-width:0;fill:#1f77b4;fill-opacity:1"/><path d="M3,0A3,3 0 1,1 0,-3A3,3 0 0,1 3,0Z" class="point" transform="translate(155.13,311.81)" style="opacity:1;stroke-width:0;fill:#1f77b4;fill-opacity:1"/><path d="M3,0A3,3 0 1,1 0,-3A3,3 0 0,1 3,0Z" class="point" transform="translate(114.69,351.18)" style="opacity:1;stroke-width:0;fill:#1f77b4;fill-opacity:1"/><path d="M3,0A3,3 0 1,1 0,-3A3,3 0 0,1 3,0Z" class="point" transform="translate(74.24,351.18)" style="opacity:1;stroke-width:0;fill:#1f77b4;fill-opacity:1"/><path d="M3,0A3,3 0 1,1 0,-3A3,3 0 0,1 3,0Z" class="point" transform="translate(33.8,376.5)" style="opacity:1;stroke-width:0;fill:#1f77b4;fill-opacity:1"/></g></g><g class="trace scatter traceaeb2ca" style="stroke-miterlimit:2;opacity:1"><g class="errorbars"><g class="errorbar"><path d="M393.79,106.48h8m-4,0V134.6m-4,0h8" class="yerror" style="vector-effect:non-scaling-stroke;stroke-width:2px;stroke:#ff7f0e;stroke-opacity:1"/></g><g class="errorbar"><path d="M353.34,133.2h8m-4,0V155.7m-4,0h8" class="yerror" style="vector-effect:non-scaling-stroke;stroke-width:2px;stroke:#ff7f0e;stroke-opacity:1"/></g><g class="errorbar"><path d="M312.9,143.04h8m-4,0V176.8m-4,0h8" class="yerror" style="vector-effect:non-scaling-stroke;stroke-width:2px;stroke:#ff7f0e;stroke-opacity:1"/></g><g class="errorbar"><path d="M272.46,168.36h8m-4,0V185.23m-4,0h8" class="yerror" style="vector-effect:non-scaling-stroke;stroke-width:2px;stroke:#ff7f0e;stroke-opacity:1"/></g><g class="errorbar"><path d="M232.01,172.58h8m-4,0V197.89m-4,0h8" class="yerror" style="vector-effect:non-scaling-stroke;stroke-width:2px;stroke:#ff7f0e;stroke-opacity:1"/></g><g class="errorbar"><path d="M191.57,196.48h8m-4,0V218.99m-4,0h8" class="yerror" style="vector-effect:non-scaling-stroke;stroke-width:2px;stroke:#ff7f0e;stroke-opacity:1"/></g><g class="errorbar"><path d="M151.13,195.08h8m-4,0V226.02m-4,0h8" class="yerror" style="vector-effect:non-scaling-stroke;stroke-width:2px;stroke:#ff7f0e;stroke-opacity:1"/></g><g class="errorbar"><path d="M110.69,217.58h8m-4,0V245.71m-4,0h8" class="yerror" style="vector-effect:non-scaling-stroke;stroke-width:2px;stroke:#ff7f0e;stroke-opacity:1"/></g><g class="errorbar"><path d="M70.24,245.71h8m-4,0V265.4m-4,0h8" class="yerror" style="vector-effect:non-scaling-stroke;stroke-width:2px;stroke:#ff7f0e;stroke-opacity:1"/></g><g class="errorbar"><path d="M29.799999999999997,252.74h8m-4,0V275.24m-4,0h8" class="yerror" style="vector-effect:non-scaling-stroke;stroke-width:2px;stroke:#ff7f0e;stroke-opacity:1"/></g></g><g class="lines"><path d="M397.79,120.54L357.34,144.45L316.9,159.92L276.46,176.8L236.01,185.23L195.57,207.73L155.13,210.55L114.69,231.64L74.24,255.55L33.8,263.99" class="js-line" style="vector-effect:non-scaling-stroke;fill:none;stroke:#ff7f0e;stroke-opacity:1;stroke-width:2px;opacity:1"/></g><g class="points"><path d="M3,0A3,3 0 1,1 0,-3A3,3 0 0,1 3,0Z" class="point" transform="translate(397.79,120.54)" style="opacity:1;stroke-width:0;fill:#ff7f0e;fill-opacity:1"/><path d="M3,0A3,3 0 1,1 0,-3A3,3 0 0,1 3,0Z" class="point" transform="translate(357.34,144.45)" style="opacity:1;stroke-width:0;fill:#ff7f0e;fill-opacity:1"/><path d="M3,0A3,3 0 1,1 0,-3A3,3 0 0,1 3,0Z" class="point" transform="translate(316.9,159.92)" style="opacity:1;stroke-width:0;fill:#ff7f0e;fill-opacity:1"/><path d="M3,0A3,3 0 1,1 0,-3A3,3 0 0,1 3,0Z" class="point" transform="translate(276.46,176.8)" style="opacity:1;stroke-width:0;fill:#ff7f0e;fill-opacity:1"/><path d="M3,0A3,3 0 1,1 0,-3A3,3 0 0,1 3,0Z" class="point" transform="translate(236.01,185.23)" style="opacity:1;stroke-width:0;fill:#ff7f0e;fill-opacity:1"/><path d="M3,0A3,3 0 1,1 0,-3A3,3 0 0,1 3,0Z" class="point" transform="translate(195.57,207.73)" style="opacity:1;stroke-width:0;fill:#ff7f0e;fill-opacity:1"/><path d="M3,0A3,3 0 1,1 0,-3A3,3 0 0,1 3,0Z" class="point" transform="translate(155.13,210.55)" style="opacity:1;stroke-width:0;fill:#ff7f0e;fill-opacity:1"/><path d="M3,0A3,3 0 1,1 0,-3A3,3 0 0,1 3,0Z" class="point" transform="translate(114.69,231.64)" style="opacity:1;stroke-width:0;fill:#ff7f0e;fill-opacity:1"/><path d="M3,0A3,3 0 1,1 0,-3A3,3 0 0,1 3,0Z" class="point" transform="translate(74.24,255.55)" style="opacity:1;stroke-width:0;fill:#ff7f0e;fill-opacity:1"/><path d="M3,0A3,3 0 1,1 0,-3A3,3 0 0,1 3,0Z" class="point" transform="translate(33.8,263.99)" style="opacity:1;stroke-width:0;fill:#ff7f0e;fill-opacity:1"/></g></g></g></g><path d="M0,0" class="xlines-above crisp" style="fill:none"/><path d="M0,0" class="ylines-above crisp" style="fill:none"/><g class="xaxislayer-above"><g class="xtick"><text x="0" y="533" text-anchor="middle" transform="translate(113.8,0)" style="font-family:'Open Sans',verdana,arial,sans-serif;font-size:12px;fill:#444;fill-opacity:1;white-space:pre">−1</text></g><g class="xtick"><text x="0" y="533" text-anchor="middle" transform="translate(194.69,0)" style="font-family:'Open Sans',verdana,arial,sans-serif;font-size:12px;fill:#444;fill-opacity:1;white-space:pre">−0.8</text></g><g class="xtick"><text x="0" y="533" text-anchor="middle" transform="translate(275.57,0)" style="font-family:'Open Sans',verdana,arial,sans-serif;font-size:12px;fill:#444;fill-opacity:1;white-space:pre">−0.6</text></g><g class="xtick"><text x="0" y="533" text-anchor="middle" transform="translate(356.46,0)" style="font-family:'Open Sans',verdana,arial,sans-serif;font-size:12px;fill:#444;fill-opacity:1;white-space:pre">−0.4</text></g><g class="xtick"><text x="0" y="533" text-anchor="middle" transform="translate(437.34,0)" style="font-family:'Open Sans',verdana,arial,sans-serif;font-size:12px;fill:#444;fill-opacity:1;white-space:pre">−0.2</text></g><g class="xtick"><text x="0" y="533" text-anchor="middle" transform="translate(518.23,0)" style="font-family:'Open Sans',verdana,arial,sans-serif;font-size:12px;fill:#444;fill-opacity:1;white-space:pre">0</text></g><g class="xtick"><text x="0" y="533" text-anchor="middle" transform="translate(599.11,0)" style="font-family:'Open Sans',verdana,arial,sans-serif;font-size:12px;fill:#444;fill-opacity:1;white-space:pre">0.2</text></g><g class="xtick"><text x="0" y="533" text-anchor="middle" transform="translate(680,0)" style="font-family:'Open Sans',verdana,arial,sans-serif;font-size:12px;fill:#444;fill-opacity:1;white-space:pre">0.4</text></g></g><g class="yaxislayer-above"><g class="ytick"><text x="79" y="4.2" text-anchor="end" transform="translate(0,489.16)" style="font-family:'Open Sans',verdana,arial,sans-serif;font-size:12px;fill:#444;fill-opacity:1;white-space:pre">−2</text></g><g class="ytick"><text x="79" y="4.2" text-anchor="end" transform="translate(0,418.84)" style="font-family:'Open Sans',verdana,arial,sans-serif;font-size:12px;fill:#444;fill-opacity:1;white-space:pre">−1.5</text></g><g class="ytick"><text x="79" y="4.2" text-anchor="end" transform="translate(0,348.52)" style="font-family:'Open Sans',verdana,arial,sans-serif;font-size:12px;fill:#444;fill-opacity:1;white-space:pre">−1</text></g><g class="ytick"><text x="79" y="4.2" text-anchor="end" transform="translate(0,278.2)" style="font-family:'Open Sans',verdana,arial,sans-serif;font-size:12px;fill:#444;fill-opacity:1;white-space:pre">−0.5</text></g><g class="ytick"><text x="79" y="4.2" text-anchor="end" transform="translate(0,207.88)" style="font-family:'Open Sans',verdana,arial,sans-serif;font-size:12px;fill:#444;fill-opacity:1;white-space:pre">0</text></g><g class="ytick"><text x="79" y="4.2" text-anchor="end" transform="translate(0,137.57)" style="font-family:'Open Sans',verdana,arial,sans-serif;font-size:12px;fill:#444;fill-opacity:1;white-space:pre">0.5</text></g></g></g></g><defs id="topdefs-6e05cc"><clipPath id="legend6e05cc"><rect width="95" height="48" x="0" y="0"/></clipPath></defs><g class="layer-above"><g class="shapelayer"><path fill-rule="evenodd" d="M477.79,250.07L680,158.66" clip-path="url('#clip6e05ccxy')" data-index="0" style="opacity:1;stroke:#000;stroke-opacity:1;fill:#000;fill-opacity:0;stroke-dasharray:3px,3px;stroke-width:2px"/><path fill-rule="evenodd" d="M477.79,220.54000000000002L680,101" clip-path="url('#clip6e05ccxy')" data-index="1" style="opacity:1;stroke:#000;stroke-opacity:1;fill:#000;fill-opacity:0;stroke-dasharray:3px,3px;stroke-width:2px"/></g></g><g class="infolayer"><g class="legend" pointer-events="all" transform="translate(693.02, 100)"><rect width="95" height="48" x="0" y="0" class="bg" shape-rendering="crispEdges" style="stroke:#444;stroke-opacity:1;fill:#fff;fill-opacity:1;stroke-width:0"/><g class="scrollbox" clip-path="url('#legend6e05cc')" transform="translate(0, 0)"><g class="groups"><g class="traces" transform="translate(0, 14.5)" style="opacity:1"><text x="40" y="4.68" class="legendtext user-select-none" text-anchor="start" style="font-family:'Open Sans',verdana,arial,sans-serif;font-size:12px;fill:#444;fill-opacity:1;white-space:pre">Desktop</text><g class="layers" style="opacity:1"><g class="legendlines"><path d="M5,0h30" class="js-line" style="fill:none;stroke:#1f77b4;stroke-opacity:1;stroke-width:2px"/></g><g class="legendsymbols"><g class="legendpoints"><path d="M3,0A3,3 0 1,1 0,-3A3,3 0 0,1 3,0Z" class="scatterpts" transform="translate(20,0)" style="opacity:1;stroke-width:0;fill:#1f77b4;fill-opacity:1"/></g></g></g><rect width="89.25" height="19" x="0" y="-9.5" class="legendtoggle" pointer-events="all" style="cursor:pointer;fill:#000;fill-opacity:0"/></g><g class="traces" transform="translate(0, 33.5)" style="opacity:1"><text x="40" y="4.68" class="legendtext user-select-none" text-anchor="start" style="font-family:'Open Sans',verdana,arial,sans-serif;font-size:12px;fill:#444;fill-opacity:1;white-space:pre">Mobile</text><g class="layers" style="opacity:1"><g class="legendlines"><path d="M5,0h30" class="js-line" style="fill:none;stroke:#ff7f0e;stroke-opacity:1;stroke-width:2px"/></g><g class="legendsymbols"><g class="legendpoints"><path d="M3,0A3,3 0 1,1 0,-3A3,3 0 0,1 3,0Z" class="scatterpts" transform="translate(20,0)" style="opacity:1;stroke-width:0;fill:#ff7f0e;fill-opacity:1"/></g></g></g><rect width="89.25" height="19" x="0" y="-9.5" class="legendtoggle" pointer-events="all" style="cursor:pointer;fill:#000;fill-opacity:0"/></g></g></g><rect width="0" height="0" x="0" y="0" class="scrollbar" rx="20" ry="3" style="fill:#808ba4;fill-opacity:1"/></g><g class="g-gtitle"><text x="400" y="50" class="gtitle" dy="0em" text-anchor="middle" style="font-family:'Open Sans',verdana,arial,sans-serif;font-size:17px;fill:#444;opacity:1;font-weight:400;white-space:pre"><tspan x="400" y="50" class="line" dy="0em"><tspan style="font-weight:700">Ad latency injected vs. impressions change</tspan></tspan><tspan x="400" y="50" class="line" dy="1.3em">(95% confidence interval error bars)</tspan></text></g><g class="g-xtitle"><text x="380.5" y="572" class="xtitle" text-anchor="middle" style="font-family:'Open Sans',verdana,arial,sans-serif;font-size:14px;fill:#444;opacity:1;font-weight:400;white-space:pre">Ad latency injected (sec)</text></g><g class="g-ytitle"><text x="42" y="310" class="ytitle" text-anchor="middle" transform="rotate(-90,42,310)" style="font-family:'Open Sans',verdana,arial,sans-serif;font-size:14px;fill:#444;opacity:1;font-weight:400;white-space:pre">Impressions change (%)</text></g></g></svg>