<svg xmlns="http://www.w3.org/2000/svg" xmlns:xlink="http://www.w3.org/1999/xlink" width="800" height="600" class="main-svg" viewBox="0 0 800 600"><rect width="800" height="600" x="0" y="0" style="fill:#fff;fill-opacity:1"/><defs id="defs-465192"><g class="clips"><clipPath id="clip465192xyplot" class="plotclip"><rect width="601" height="420"/></clipPath><clipPath id="clip465192x" class="axesclip"><rect width="601" height="600" x="80" y="0"/></clipPath><clipPath id="clip465192y" class="axesclip"><rect width="800" height="420" x="0" y="100"/></clipPath><clipPath id="clip465192xy" class="axesclip"><rect width="601" height="420" x="80" y="100"/></clipPath></g></defs><g class="cartesianlayer"><g class="subplot xy"><g class="gridlayer"><g class="x"><path d="M0,100v420" class="xgrid crisp" transform="translate(113.8,0)" style="stroke:#eee;stroke-opacity:1;stroke-width:1px"/><path d="M0,100v420" class="xgrid crisp" transform="translate(194.69,0)" style="stroke:#eee;stroke-opacity:1;stroke-width:1px"/><path d="M0,100v420" class="xgrid crisp" transform="translate(275.57,0)" style="stroke:#eee;stroke-opacity:1;stroke-width:1px"/><path d="M0,100v420" class="xgrid crisp" transform="translate(356.46,0)" style="stroke:#eee;stroke-opacity:1;stroke-width:1px"/><path d="M0,100v420" class="xgrid crisp" transform="translate(437.34,0)" style="stroke:#eee;stroke-opacity:1;stroke-width:1px"/><path d="M0,100v420" class="xgrid crisp" transform="translate(599.11,0)" style="stroke:#eee;stroke-opacity:1;stroke-width:1px"/></g><g class="y"><path d="M80,0h601" class="ygrid crisp" transform="translate(0,445.48)" style="stroke:#eee;stroke-opacity:1;stroke-width:1px"/><path d="M80,0h601" class="ygrid crisp" transform="translate(0,370.1)" style="stroke:#eee;stroke-opacity:1;stroke-width:1px"/><path d="M80,0h601" class="ygrid crisp" transform="translate(0,294.72)" style="stroke:#eee;stroke-opacity:1;stroke-width:1px"/><path d="M80,0h601" class="ygrid crisp" transform="translate(0,143.97)" style="stroke:#eee;stroke-opacity:1;stroke-width:1px"/></g></g><g class="zerolinelayer"><path d="M0,100v420" class="xzl zl crisp" transform="translate(518.23,0)" style="stroke:#444;stroke-opacity:1;stroke-width:1px"/><path d="M80,0h601" class="yzl zl crisp" transform="translate(0,219.34)" style="stroke:#444;stroke-opacity:1;stroke-width:1px"/></g><path class="xlines-below"/><path class="ylines-below"/><g class="plot" clip-path="url('#clip465192xyplot')" transform="translate(80, 100)"><g class="scatterlayer mlayer"><g class="trace scatter tracedbe790" style="stroke-miterlimit:2;opacity:1"><g class="errorbars"><g class="errorbar"><path d="M393.79,132.16h8m-4,0V148.74m-4,0h8" class="yerror" style="vector-effect:non-scaling-stroke;stroke-width:2px;stroke:#1f77b4;stroke-opacity:1"/></g><g class="errorbar"><path d="M353.34,147.23h8m-4,0V165.33m-4,0h8" class="yerror" style="vector-effect:non-scaling-stroke;stroke-width:2px;stroke:#1f77b4;stroke-opacity:1"/></g><g class="errorbar"><path d="M312.9,174.37h8m-4,0V196.98m-4,0h8" class="yerror" style="vector-effect:non-scaling-stroke;stroke-width:2px;stroke:#1f77b4;stroke-opacity:1"/></g><g class="errorbar"><path d="M272.46,196.23h8m-4,0V212.81m-4,0h8" class="yerror" style="vector-effect:non-scaling-stroke;stroke-width:2px;stroke:#1f77b4;stroke-opacity:1"/></g><g class="errorbar"><path d="M232.01,209.05h8m-4,0V228.64m-4,0h8" class="yerror" style="vector-effect:non-scaling-stroke;stroke-width:2px;stroke:#1f77b4;stroke-opacity:1"/></g><g class="errorbar"><path d="M191.57,230.15h8m-4,0V252.77m-4,0h8" class="yerror" style="vector-effect:non-scaling-stroke;stroke-width:2px;stroke:#1f77b4;stroke-opacity:1"/></g><g class="errorbar"><path d="M151.13,249h8m-4,0V273.12m-4,0h8" class="yerror" style="vector-effect:non-scaling-stroke;stroke-width:2px;stroke:#1f77b4;stroke-opacity:1"/></g><g class="errorbar"><path d="M110.69,261.81h8m-4,0V290.45m-4,0h8" class="yerror" style="vector-effect:non-scaling-stroke;stroke-width:2px;stroke:#1f77b4;stroke-opacity:1"/></g><g class="errorbar"><path d="M70.24,297.99h8m-4,0V319.1m-4,0h8" class="yerror" style="vector-effect:non-scaling-stroke;stroke-width:2px;stroke:#1f77b4;stroke-opacity:1"/></g><g class="errorbar"><path d="M29.799999999999997,324.38h8m-4,0V350m-4,0h8" class="yerror" style="vector-effect:non-scaling-stroke;stroke-width:2px;stroke:#1f77b4;stroke-opacity:1"/></g></g><g class="lines"><path d="M397.79,140.45L357.34,156.28L316.9,185.68L276.46,204.52L236.01,218.84L195.57,241.46L155.13,261.06L114.69,276.13L74.24,308.55L33.8,337.19" class="js-line" style="vector-effect:non-scaling-stroke;fill:none;stroke:#1f77b4;stroke-opacity:1;stroke-width:2px;opacity:1"/></g><g class="points"><path d="M3,0A3,3 0 1,1 0,-3A3,3 0 0,1 3,0Z" class="point" transform="translate(397.79,140.45)" style="opacity:1;stroke-width:0;fill:#1f77b4;fill-opacity:1"/><path d="M3,0A3,3 0 1,1 0,-3A3,3 0 0,1 3,0Z" class="point" transform="translate(357.34,156.28)" style="opacity:1;stroke-width:0;fill:#1f77b4;fill-opacity:1"/><path d="M3,0A3,3 0 1,1 0,-3A3,3 0 0,1 3,0Z" class="point" transform="translate(316.9,185.68)" style="opacity:1;stroke-width:0;fill:#1f77b4;fill-opacity:1"/><path d="M3,0A3,3 0 1,1 0,-3A3,3 0 0,1 3,0Z" class="point" transform="translate(276.46,204.52)" style="opacity:1;stroke-width:0;fill:#1f77b4;fill-opacity:1"/><path d="M3,0A3,3 0 1,1 0,-3A3,3 0 0,1 3,0Z" class="point" transform="translate(236.01,218.84)" style="opacity:1;stroke-width:0;fill:#1f77b4;fill-opacity:1"/><path d="M3,0A3,3 0 1,1 0,-3A3,3 0 0,1 3,0Z" class="point" transform="translate(195.57,241.46)" style="opacity:1;stroke-width:0;fill:#1f77b4;fill-opacity:1"/><path d="M3,0A3,3 0 1,1 0,-3A3,3 0 0,1 3,0Z" class="point" transform="translate(155.13,261.06)" style="opacity:1;stroke-width:0;fill:#1f77b4;fill-opacity:1"/><path d="M3,0A3,3 0 1,1 0,-3A3,3 0 0,1 3,0Z" class="point" transform="translate(114.69,276.13)" style="opacity:1;stroke-width:0;fill:#1f77b4;fill-opacity:1"/><path d="M3,0A3,3 0 1,1 0,-3A3,3 0 0,1 3,0Z" class="point" transform="translate(74.24,308.55)" style="opacity:1;stroke-width:0;fill:#1f77b4;fill-opacity:1"/><path d="M3,0A3,3 0 1,1 0,-3A3,3 0 0,1 3,0Z" class="point" transform="translate(33.8,337.19)" style="opacity:1;stroke-width:0;fill:#1f77b4;fill-opacity:1"/></g></g><g class="trace scatter trace3b5ef6" style="stroke-miterlimit:2;opacity:1"><g class="errorbars"><g class="errorbar"><path d="M393.79,138.94h8m-4,0V149.5m-4,0h8" class="yerror" style="vector-effect:non-scaling-stroke;stroke-width:2px;stroke:#ff7f0e;stroke-opacity:1"/></g><g class="errorbar"><path d="M353.34,165.33h8m-4,0V180.4m-4,0h8" class="yerror" style="vector-effect:non-scaling-stroke;stroke-width:2px;stroke:#ff7f0e;stroke-opacity:1"/></g><g class="errorbar"><path d="M312.9,194.72h8m-4,0V205.28m-4,0h8" class="yerror" style="vector-effect:non-scaling-stroke;stroke-width:2px;stroke:#ff7f0e;stroke-opacity:1"/></g><g class="errorbar"><path d="M272.46,222.61h8m-4,0V231.66m-4,0h8" class="yerror" style="vector-effect:non-scaling-stroke;stroke-width:2px;stroke:#ff7f0e;stroke-opacity:1"/></g><g class="errorbar"><path d="M232.01,246.73h8m-4,0V258.8m-4,0h8" class="yerror" style="vector-effect:non-scaling-stroke;stroke-width:2px;stroke:#ff7f0e;stroke-opacity:1"/></g><g class="errorbar"><path d="M191.57,276.89h8m-4,0V285.93m-4,0h8" class="yerror" style="vector-effect:non-scaling-stroke;stroke-width:2px;stroke:#ff7f0e;stroke-opacity:1"/></g><g class="errorbar"><path d="M151.13,304.02h8m-4,0V316.08m-4,0h8" class="yerror" style="vector-effect:non-scaling-stroke;stroke-width:2px;stroke:#ff7f0e;stroke-opacity:1"/></g><g class="errorbar"><path d="M110.69,331.16h8m-4,0V343.22m-4,0h8" class="yerror" style="vector-effect:non-scaling-stroke;stroke-width:2px;stroke:#ff7f0e;stroke-opacity:1"/></g><g class="errorbar"><path d="M70.24,361.31h8m-4,0V371.86m-4,0h8" class="yerror" style="vector-effect:non-scaling-stroke;stroke-width:2px;stroke:#ff7f0e;stroke-opacity:1"/></g><g class="errorbar"><path d="M29.799999999999997,388.45h8m-4,0V399m-4,0h8" class="yerror" style="vector-effect:non-scaling-stroke;stroke-width:2px;stroke:#ff7f0e;stroke-opacity:1"/></g></g><g class="lines"><path d="M397.79,144.22L357.34,172.86L316.9,200L276.46,227.14L236.01,252.77L155.13,310.05L114.69,337.19L74.24,366.59L33.8,393.72" class="js-line" style="vector-effect:non-scaling-stroke;fill:none;stroke:#ff7f0e;stroke-opacity:1;stroke-width:2px;opacity:1"/></g><g class="points"><path d="M3,0A3,3 0 1,1 0,-3A3,3 0 0,1 3,0Z" class="point" transform="translate(397.79,144.22)" style="opacity:1;stroke-width:0;fill:#ff7f0e;fill-opacity:1"/><path d="M3,0A3,3 0 1,1 0,-3A3,3 0 0,1 3,0Z" class="point" transform="translate(357.34,172.86)" style="opacity:1;stroke-width:0;fill:#ff7f0e;fill-opacity:1"/><path d="M3,0A3,3 0 1,1 0,-3A3,3 0 0,1 3,0Z" class="point" transform="translate(316.9,200)" style="opacity:1;stroke-width:0;fill:#ff7f0e;fill-opacity:1"/><path d="M3,0A3,3 0 1,1 0,-3A3,3 0 0,1 3,0Z" class="point" transform="translate(276.46,227.14)" style="opacity:1;stroke-width:0;fill:#ff7f0e;fill-opacity:1"/><path d="M3,0A3,3 0 1,1 0,-3A3,3 0 0,1 3,0Z" class="point" transform="translate(236.01,252.77)" style="opacity:1;stroke-width:0;fill:#ff7f0e;fill-opacity:1"/><path d="M3,0A3,3 0 1,1 0,-3A3,3 0 0,1 3,0Z" class="point" transform="translate(195.57,281.41)" style="opacity:1;stroke-width:0;fill:#ff7f0e;fill-opacity:1"/><path d="M3,0A3,3 0 1,1 0,-3A3,3 0 0,1 3,0Z" class="point" transform="translate(155.13,310.05)" style="opacity:1;stroke-width:0;fill:#ff7f0e;fill-opacity:1"/><path d="M3,0A3,3 0 1,1 0,-3A3,3 0 0,1 3,0Z" class="point" transform="translate(114.69,337.19)" style="opacity:1;stroke-width:0;fill:#ff7f0e;fill-opacity:1"/><path d="M3,0A3,3 0 1,1 0,-3A3,3 0 0,1 3,0Z" class="point" transform="translate(74.24,366.59)" style="opacity:1;stroke-width:0;fill:#ff7f0e;fill-opacity:1"/><path d="M3,0A3,3 0 1,1 0,-3A3,3 0 0,1 3,0Z" class="point" transform="translate(33.8,393.72)" style="opacity:1;stroke-width:0;fill:#ff7f0e;fill-opacity:1"/></g></g></g></g><path d="M0,0" class="xlines-above crisp" style="fill:none"/><path d="M0,0" class="ylines-above crisp" style="fill:none"/><g class="xaxislayer-above"><g class="xtick"><text x="0" y="533" text-anchor="middle" transform="translate(113.8,0)" style="font-family:'Open Sans',verdana,arial,sans-serif;font-size:12px;fill:#444;fill-opacity:1;white-space:pre">−1</text></g><g class="xtick"><text x="0" y="533" text-anchor="middle" transform="translate(194.69,0)" style="font-family:'Open Sans',verdana,arial,sans-serif;font-size:12px;fill:#444;fill-opacity:1;white-space:pre">−0.8</text></g><g class="xtick"><text x="0" y="533" text-anchor="middle" transform="translate(275.57,0)" style="font-family:'Open Sans',verdana,arial,sans-serif;font-size:12px;fill:#444;fill-opacity:1;white-space:pre">−0.6</text></g><g class="xtick"><text x="0" y="533" text-anchor="middle" transform="translate(356.46,0)" style="font-family:'Open Sans',verdana,arial,sans-serif;font-size:12px;fill:#444;fill-opacity:1;white-space:pre">−0.4</text></g><g class="xtick"><text x="0" y="533" text-anchor="middle" transform="translate(437.34,0)" style="font-family:'Open Sans',verdana,arial,sans-serif;font-size:12px;fill:#444;fill-opacity:1;white-space:pre">−0.2</text></g><g class="xtick"><text x="0" y="533" text-anchor="middle" transform="translate(518.23,0)" style="font-family:'Open Sans',verdana,arial,sans-serif;font-size:12px;fill:#444;fill-opacity:1;white-space:pre">0</text></g><g class="xtick"><text x="0" y="533" text-anchor="middle" transform="translate(599.11,0)" style="font-family:'Open Sans',verdana,arial,sans-serif;font-size:12px;fill:#444;fill-opacity:1;white-space:pre">0.2</text></g><g class="xtick"><text x="0" y="533" text-anchor="middle" transform="translate(680,0)" style="font-family:'Open Sans',verdana,arial,sans-serif;font-size:12px;fill:#444;fill-opacity:1;white-space:pre">0.4</text></g></g><g class="yaxislayer-above"><g class="ytick"><text x="79" y="4.2" text-anchor="end" transform="translate(0,445.48)" style="font-family:'Open Sans',verdana,arial,sans-serif;font-size:12px;fill:#444;fill-opacity:1;white-space:pre">−3</text></g><g class="ytick"><text x="79" y="4.2" text-anchor="end" transform="translate(0,370.1)" style="font-family:'Open Sans',verdana,arial,sans-serif;font-size:12px;fill:#444;fill-opacity:1;white-space:pre">−2</text></g><g class="ytick"><text x="79" y="4.2" text-anchor="end" transform="translate(0,294.72)" style="font-family:'Open Sans',verdana,arial,sans-serif;font-size:12px;fill:#444;fill-opacity:1;white-space:pre">−1</text></g><g class="ytick"><text x="79" y="4.2" text-anchor="end" transform="translate(0,219.34)" style="font-family:'Open Sans',verdana,arial,sans-serif;font-size:12px;fill:#444;fill-opacity:1;white-space:pre">0</text></g><g class="ytick"><text x="79" y="4.2" text-anchor="end" transform="translate(0,143.97)" style="font-family:'Open Sans',verdana,arial,sans-serif;font-size:12px;fill:#444;fill-opacity:1;white-space:pre">1</text></g></g></g></g><defs id="topdefs-465192"><clipPath id="legend465192"><rect width="95" height="48" x="0" y="0"/></clipPath></defs><g class="layer-above"><g class="shapelayer"><path fill-rule="evenodd" d="M477.79,240.45L680,161.3" clip-path="url('#clip465192xy')" data-index="0" style="opacity:1;stroke:#000;stroke-opacity:1;fill:#000;fill-opacity:0;stroke-dasharray:3px,3px;stroke-width:2px"/><path fill-rule="evenodd" d="M477.79,244.22L680,101" clip-path="url('#clip465192xy')" data-index="1" style="opacity:1;stroke:#000;stroke-opacity:1;fill:#000;fill-opacity:0;stroke-dasharray:3px,3px;stroke-width:2px"/></g></g><g class="infolayer"><g class="legend" pointer-events="all" transform="translate(693.02, 100)"><rect width="95" height="48" x="0" y="0" class="bg" shape-rendering="crispEdges" style="stroke:#444;stroke-opacity:1;fill:#fff;fill-opacity:1;stroke-width:0"/><g class="scrollbox" clip-path="url('#legend465192')" transform="translate(0, 0)"><g class="groups"><g class="traces" transform="translate(0, 14.5)" style="opacity:1"><text x="40" y="4.68" class="legendtext user-select-none" text-anchor="start" style="font-family:'Open Sans',verdana,arial,sans-serif;font-size:12px;fill:#444;fill-opacity:1;white-space:pre">Desktop</text><g class="layers" style="opacity:1"><g class="legendlines"><path d="M5,0h30" class="js-line" style="fill:none;stroke:#1f77b4;stroke-opacity:1;stroke-width:2px"/></g><g class="legendsymbols"><g class="legendpoints"><path d="M3,0A3,3 0 1,1 0,-3A3,3 0 0,1 3,0Z" class="scatterpts" transform="translate(20,0)" style="opacity:1;stroke-width:0;fill:#1f77b4;fill-opacity:1"/></g></g></g><rect width="89.25" height="19" x="0" y="-9.5" class="legendtoggle" pointer-events="all" style="cursor:pointer;fill:#000;fill-opacity:0"/></g><g class="traces" transform="translate(0, 33.5)" style="opacity:1"><text x="40" y="4.68" class="legendtext user-select-none" text-anchor="start" style="font-family:'Open Sans',verdana,arial,sans-serif;font-size:12px;fill:#444;fill-opacity:1;white-space:pre">Mobile</text><g class="layers" style="opacity:1"><g class="legendlines"><path d="M5,0h30" class="js-line" style="fill:none;stroke:#ff7f0e;stroke-opacity:1;stroke-width:2px"/></g><g class="legendsymbols"><g class="legendpoints"><path d="M3,0A3,3 0 1,1 0,-3A3,3 0 0,1 3,0Z" class="scatterpts" transform="translate(20,0)" style="opacity:1;stroke-width:0;fill:#ff7f0e;fill-opacity:1"/></g></g></g><rect width="89.25" height="19" x="0" y="-9.5" class="legendtoggle" pointer-events="all" style="cursor:pointer;fill:#000;fill-opacity:0"/></g></g></g><rect width="0" height="0" x="0" y="0" class="scrollbar" rx="20" ry="3" style="fill:#808ba4;fill-opacity:1"/></g><g class="g-gtitle"><text x="400" y="50" class="gtitle" dy="0em" text-anchor="middle" style="font-family:'Open Sans',verdana,arial,sans-serif;font-size:17px;fill:#444;opacity:1;font-weight:400;white-space:pre"><tspan x="400" y="50" class="line" dy="0em"><tspan style="font-weight:700">Ad latency injected vs. viewability rate change</tspan></tspan><tspan x="400" y="50" class="line" dy="1.3em">(95% confidence interval error bars)</tspan></text></g><g class="g-xtitle"><text x="380.5" y="572" class="xtitle" text-anchor="middle" style="font-family:'Open Sans',verdana,arial,sans-serif;font-size:14px;fill:#444;opacity:1;font-weight:400;white-space:pre">Ad latency injected (sec)</text></g><g class="g-ytitle"><text x="42" y="310" class="ytitle" text-anchor="middle" transform="rotate(-90,42,310)" style="font-family:'Open Sans',verdana,arial,sans-serif;font-size:14px;fill:#444;opacity:1;font-weight:400;white-space:pre">Viewability rate change (%)</text></g></g></svg>