<svg xmlns="http://www.w3.org/2000/svg" xmlns:xlink="http://www.w3.org/1999/xlink" width="800" height="600" class="main-svg" viewBox="0 0 800 600"><rect width="800" height="600" x="0" y="0" style="fill:#fff;fill-opacity:1"/><defs id="defs-d30585"><g class="clips"><clipPath id="clipd30585xyplot" class="plotclip"><rect width="640" height="420"/></clipPath><clipPath id="clipd30585x" class="axesclip"><rect width="640" height="600" x="80" y="0"/></clipPath><clipPath id="clipd30585y" class="axesclip"><rect width="800" height="420" x="0" y="100"/></clipPath><clipPath id="clipd30585xy" class="axesclip"><rect width="640" height="420" x="80" y="100"/></clipPath></g></defs><g class="cartesianlayer"><g class="subplot xy"><g class="gridlayer"><g class="y"><path d="M80,0h640" class="ygrid crisp" transform="translate(0,425.45)" style="stroke:#eee;stroke-opacity:1;stroke-width:1px"/><path d="M80,0h640" class="ygrid crisp" transform="translate(0,330.9)" style="stroke:#eee;stroke-opacity:1;stroke-width:1px"/><path d="M80,0h640" class="ygrid crisp" transform="translate(0,236.35)" style="stroke:#eee;stroke-opacity:1;stroke-width:1px"/><path d="M80,0h640" class="ygrid crisp" transform="translate(0,141.8)" style="stroke:#eee;stroke-opacity:1;stroke-width:1px"/></g></g><g class="zerolinelayer"><path d="M80,0h640" class="yzl zl crisp" transform="translate(0,520)" style="stroke:#444;stroke-opacity:1;stroke-width:1px"/></g><path class="xlines-below"/><path class="ylines-below"/><g class="plot" clip-path="url('#clipd30585xyplot')" transform="translate(80, 100)"><g class="barlayer mlayer"><g class="trace bars" style="opacity:1"><g class="points"><g class="point"><path d="M1.6,420V21H14.4V420Z" style="vector-effect:non-scaling-stroke;opacity:1;stroke-width:0;fill:#1f77b4;fill-opacity:1"/></g><g class="point"><path d="M17.6,420V187.41H30.4V420Z" style="vector-effect:non-scaling-stroke;opacity:1;stroke-width:0;fill:#1f77b4;fill-opacity:1"/></g><g class="point"><path d="M33.6,420V143.91H46.4V420Z" style="vector-effect:non-scaling-stroke;opacity:1;stroke-width:0;fill:#1f77b4;fill-opacity:1"/></g><g class="point"><path d="M49.6,420V291.41H62.4V420Z" style="vector-effect:non-scaling-stroke;opacity:1;stroke-width:0;fill:#1f77b4;fill-opacity:1"/></g><g class="point"><path d="M65.6,420V333.01H78.4V420Z" style="vector-effect:non-scaling-stroke;opacity:1;stroke-width:0;fill:#1f77b4;fill-opacity:1"/></g><g class="point"><path d="M81.6,420V346.25H94.4V420Z" style="vector-effect:non-scaling-stroke;opacity:1;stroke-width:0;fill:#1f77b4;fill-opacity:1"/></g><g class="point"><path d="M97.6,420V333.01H110.4V420Z" style="vector-effect:non-scaling-stroke;opacity:1;stroke-width:0;fill:#1f77b4;fill-opacity:1"/></g><g class="point"><path d="M113.6,420V333.01H126.4V420Z" style="vector-effect:non-scaling-stroke;opacity:1;stroke-width:0;fill:#1f77b4;fill-opacity:1"/></g><g class="point"><path d="M129.6,420V342.47H142.4V420Z" style="vector-effect:non-scaling-stroke;opacity:1;stroke-width:0;fill:#1f77b4;fill-opacity:1"/></g><g class="point"><path d="M145.6,420V340.58H158.4V420Z" style="vector-effect:non-scaling-stroke;opacity:1;stroke-width:0;fill:#1f77b4;fill-opacity:1"/></g><g class="point"><path d="M161.6,420V353.82H174.4V420Z" style="vector-effect:non-scaling-stroke;opacity:1;stroke-width:0;fill:#1f77b4;fill-opacity:1"/></g><g class="point"><path d="M177.6,420V361.38H190.4V420Z" style="vector-effect:non-scaling-stroke;opacity:1;stroke-width:0;fill:#1f77b4;fill-opacity:1"/></g><g class="point"><path d="M193.6,420V374.62H206.4V420Z" style="vector-effect:non-scaling-stroke;opacity:1;stroke-width:0;fill:#1f77b4;fill-opacity:1"/></g><g class="point"><path d="M209.6,420V382.18H222.4V420Z" style="vector-effect:non-scaling-stroke;opacity:1;stroke-width:0;fill:#1f77b4;fill-opacity:1"/></g><g class="point"><path d="M225.6,420V387.85H238.4V420Z" style="vector-effect:non-scaling-stroke;opacity:1;stroke-width:0;fill:#1f77b4;fill-opacity:1"/></g><g class="point"><path d="M241.6,420V397.31H254.4V420Z" style="vector-effect:non-scaling-stroke;opacity:1;stroke-width:0;fill:#1f77b4;fill-opacity:1"/></g><g class="point"><path d="M257.6,420V399.2H270.4V420Z" style="vector-effect:non-scaling-stroke;opacity:1;stroke-width:0;fill:#1f77b4;fill-opacity:1"/></g><g class="point"><path d="M273.6,420V402.98H286.4V420Z" style="vector-effect:non-scaling-stroke;opacity:1;stroke-width:0;fill:#1f77b4;fill-opacity:1"/></g><g class="point"><path d="M289.6,420V399.2H302.4V420Z" style="vector-effect:non-scaling-stroke;opacity:1;stroke-width:0;fill:#1f77b4;fill-opacity:1"/></g><g class="point"><path d="M305.6,420V404.87H318.4V420Z" style="vector-effect:non-scaling-stroke;opacity:1;stroke-width:0;fill:#1f77b4;fill-opacity:1"/></g><g class="point"><path d="M321.6,420V406.76H334.4V420Z" style="vector-effect:non-scaling-stroke;opacity:1;stroke-width:0;fill:#1f77b4;fill-opacity:1"/></g><g class="point"><path d="M337.6,420V420H350.4V420Z" style="vector-effect:non-scaling-stroke;opacity:1;stroke-width:0;fill:#1f77b4;fill-opacity:1"/></g><g class="point"><path d="M353.6,420V420H366.4V420Z" style="vector-effect:non-scaling-stroke;opacity:1;stroke-width:0;fill:#1f77b4;fill-opacity:1"/></g><g class="point"><path d="M369.6,420V418.11H382.4V420Z" style="vector-effect:non-scaling-stroke;opacity:1;stroke-width:0;fill:#1f77b4;fill-opacity:1"/></g><g class="point"><path d="M385.6,420V416.22H398.4V420Z" style="vector-effect:non-scaling-stroke;opacity:1;stroke-width:0;fill:#1f77b4;fill-opacity:1"/></g><g class="point"><path d="M401.6,420V418.11H414.4V420Z" style="vector-effect:non-scaling-stroke;opacity:1;stroke-width:0;fill:#1f77b4;fill-opacity:1"/></g><g class="point"><path d="M417.6,420V416.22H430.4V420Z" style="vector-effect:non-scaling-stroke;opacity:1;stroke-width:0;fill:#1f77b4;fill-opacity:1"/></g><g class="point"><path d="M433.6,420V416.22H446.4V420Z" style="vector-effect:non-scaling-stroke;opacity:1;stroke-width:0;fill:#1f77b4;fill-opacity:1"/></g><g class="point"><path d="M449.6,420V418.11H462.4V420Z" style="vector-effect:non-scaling-stroke;opacity:1;stroke-width:0;fill:#1f77b4;fill-opacity:1"/></g><g class="point"><path d="M465.6,420V416.22H478.4V420Z" style="vector-effect:non-scaling-stroke;opacity:1;stroke-width:0;fill:#1f77b4;fill-opacity:1"/></g><g class="point"><path d="M481.6,420V414.33H494.4V420Z" style="vector-effect:non-scaling-stroke;opacity:1;stroke-width:0;fill:#1f77b4;fill-opacity:1"/></g><g class="point"><path d="M497.6,420V418.11H510.4V420Z" style="vector-effect:non-scaling-stroke;opacity:1;stroke-width:0;fill:#1f77b4;fill-opacity:1"/></g><g class="point"><path d="M513.6,420V416.22H526.4V420Z" style="vector-effect:non-scaling-stroke;opacity:1;stroke-width:0;fill:#1f77b4;fill-opacity:1"/></g><g class="point"><path d="M529.6,420V418.11H542.4V420Z" style="vector-effect:non-scaling-stroke;opacity:1;stroke-width:0;fill:#1f77b4;fill-opacity:1"/></g><g class="point"><path d="M545.6,420V420H558.4V420Z" style="vector-effect:non-scaling-stroke;opacity:1;stroke-width:0;fill:#1f77b4;fill-opacity:1"/></g><g class="point"><path d="M561.6,420V416.22H574.4V420Z" style="vector-effect:non-scaling-stroke;opacity:1;stroke-width:0;fill:#1f77b4;fill-opacity:1"/></g><g class="point"><path d="M577.6,420V416.22H590.4V420Z" style="vector-effect:non-scaling-stroke;opacity:1;stroke-width:0;fill:#1f77b4;fill-opacity:1"/></g><g class="point"><path d="M593.6,420V416.22H606.4V420Z" style="vector-effect:non-scaling-stroke;opacity:1;stroke-width:0;fill:#1f77b4;fill-opacity:1"/></g><g class="point"><path d="M609.6,420V414.33H622.4V420Z" style="vector-effect:non-scaling-stroke;opacity:1;stroke-width:0;fill:#1f77b4;fill-opacity:1"/></g><g class="point"><path d="M625.6,420V416.22H638.4V420Z" style="vector-effect:non-scaling-stroke;opacity:1;stroke-width:0;fill:#1f77b4;fill-opacity:1"/></g></g></g></g></g><path d="M0,0" class="xlines-above crisp" style="fill:none"/><path d="M0,0" class="ylines-above crisp" style="fill:none"/><g class="xaxislayer-above"><g class="xtick"><text x="0" y="533" text-anchor="middle" transform="translate(88,0)" style="font-family:'Open Sans',verdana,arial,sans-serif;font-size:12px;fill:#444;fill-opacity:1;white-space:pre">0</text></g><g class="xtick"><text x="0" y="533" text-anchor="middle" transform="translate(248,0)" style="font-family:'Open Sans',verdana,arial,sans-serif;font-size:12px;fill:#444;fill-opacity:1;white-space:pre">500</text></g><g class="xtick"><text x="0" y="533" text-anchor="middle" transform="translate(408,0)" style="font-family:'Open Sans',verdana,arial,sans-serif;font-size:12px;fill:#444;fill-opacity:1;white-space:pre">1000</text></g><g class="xtick"><text x="0" y="533" text-anchor="middle" transform="translate(568,0)" style="font-family:'Open Sans',verdana,arial,sans-serif;font-size:12px;fill:#444;fill-opacity:1;white-space:pre">1500</text></g></g><g class="yaxislayer-above"><g class="ytick"><text x="79" y="4.2" text-anchor="end" transform="translate(0,520)" style="font-family:'Open Sans',verdana,arial,sans-serif;font-size:12px;fill:#444;fill-opacity:1;white-space:pre">0</text></g><g class="ytick"><text x="79" y="4.2" text-anchor="end" transform="translate(0,425.45)" style="font-family:'Open Sans',verdana,arial,sans-serif;font-size:12px;fill:#444;fill-opacity:1;white-space:pre">0.05</text></g><g class="ytick"><text x="79" y="4.2" text-anchor="end" transform="translate(0,330.9)" style="font-family:'Open Sans',verdana,arial,sans-serif;font-size:12px;fill:#444;fill-opacity:1;white-space:pre">0.1</text></g><g class="ytick"><text x="79" y="4.2" text-anchor="end" transform="translate(0,236.35)" style="font-family:'Open Sans',verdana,arial,sans-serif;font-size:12px;fill:#444;fill-opacity:1;white-space:pre">0.15</text></g><g class="ytick"><text x="79" y="4.2" text-anchor="end" transform="translate(0,141.8)" style="font-family:'Open Sans',verdana,arial,sans-serif;font-size:12px;fill:#444;fill-opacity:1;white-space:pre">0.2</text></g></g></g></g><g class="infolayer"><g class="g-gtitle"><text x="400" y="50" class="gtitle" dy="0em" text-anchor="middle" style="font-family:'Open Sans',verdana,arial,sans-serif;font-size:17px;fill:#444;opacity:1;font-weight:400;white-space:pre"><tspan x="400" y="50" class="line" dy="0em"><tspan style="font-weight:700">Percentage point change in no. of ad script loads</tspan></tspan><tspan x="400" y="50" class="line" dy="1.3em"><tspan style="font-weight:700">vs.</tspan></tspan><tspan x="400" y="50" class="line" dy="2.6em"><tspan style="font-weight:700">Time from page load start to ad script load (ms)</tspan></tspan></text></g><g class="g-xtitle"><text x="400" y="572" class="xtitle" text-anchor="middle" style="font-family:'Open Sans',verdana,arial,sans-serif;font-size:14px;fill:#444;opacity:1;font-weight:400;white-space:pre">Time from page load start to ad script load (ms)</text></g><g class="g-ytitle"><text x="42" y="310" class="ytitle" text-anchor="middle" transform="rotate(-90,42,310)" style="font-family:'Open Sans',verdana,arial,sans-serif;font-size:14px;fill:#444;opacity:1;font-weight:400;white-space:pre">Percentage point change in no. of ad script loads</text></g></g></svg>